# xmcd CD database file
#
# Track frame offsets:
#	150
#	22910
#	42265
#	58340
#	79515
#	102475
#	120505
#	141447
#	165577
#	185037
#
# Disc length: 2737 seconds
#
# Revision: 3
# Processed by: cddbd v1.5PL3 Copyright (c) Steve Scherf et al.
# Submitted via: CDex 1.51
#
DISCID=850aaf0a
DTITLE=Dr John - Afterglow
DYEAR=1995
DGENRE=Blues
TTITLE0=I Know What I've Got
TTITLE1=Gee Baby Ain't I Good To You
TTITLE2=I'm Just a Lucky So-and-So
TTITLE3=Blue Skies
TTITLE4=So Long
TTITLE5=New York City Blues
TTITLE6=Tell Me You'll Wait For Me
TTITLE7=There Must Be a Better World Somewhere
TTITLE8=I Still Think About You
TTITLE9=I'm Confessin' (That I Love You)
EXTD=YEAR: 1995
EXTT0=
EXTT1=
EXTT2=
EXTT3=
EXTT4=
EXTT5=
EXTT6=
EXTT7=
EXTT8=
EXTT9=
PLAYORDER=
